<?xml version="1.0" encoding="UTF-8"?>
<svg id="Ebene_1" xmlns="http://www.w3.org/2000/svg" version="1.1" viewBox="0 0 193 56">
  <g style="opacity: .5;">
    <polygon points="12.39 41.34 9.84 48.55 6.93 40.85 4.07 48.55 1.47 41.34 .14 41.34 3.99 51.63 6.93 44.01 9.87 51.63 13.72 41.34 12.39 41.34" style="fill: #f7f3f3;"/>
    <path d="M18.05,44.96c-.45-.27-1-.4-1.63-.4s-1.19.14-1.67.42-.85.67-1.12,1.18c-.27.5-.4,1.09-.4,1.76s.13,1.25.38,1.75.62.9,1.08,1.18c.46.29.99.43,1.59.43.69,0,1.29-.14,1.8-.41s.93-.68,1.27-1.22l-.91-.57c-.23.39-.52.68-.85.88-.34.19-.72.29-1.16.29s-.81-.09-1.12-.28c-.31-.19-.54-.46-.7-.81-.12-.27-.18-.59-.21-.94h5.05v-.33c0-.68-.12-1.27-.36-1.76-.24-.49-.59-.88-1.04-1.14v-.03ZM15.32,45.81c.3-.18.67-.27,1.1-.27.36,0,.68.08.95.24s.48.38.64.66c.13.23.19.51.21.81h-3.8c.04-.24.1-.46.2-.65.16-.34.4-.6.7-.78h0Z" style="fill: #f7f3f3;"/>
    <path d="M25.85,44.97c-.48-.27-1.01-.41-1.6-.41-.53,0-1,.14-1.41.41-.33.22-.58.53-.79.89v-5.64h-1.12v10.92h1.12v-1.16c.21.37.46.68.79.9.41.27.88.41,1.41.41.59,0,1.12-.13,1.6-.41.48-.27.87-.66,1.16-1.16.29-.5.43-1.1.43-1.79s-.15-1.3-.43-1.8c-.29-.5-.67-.88-1.16-1.16ZM26.01,49.18c-.2.35-.47.61-.8.78-.33.18-.7.27-1.1.27-.33,0-.65-.09-.97-.27s-.58-.44-.78-.78c-.21-.35-.31-.77-.31-1.26s.1-.92.31-1.26.47-.61.78-.78c.32-.18.64-.27.97-.27.4,0,.77.09,1.1.27s.6.44.8.78c.2.35.3.77.3,1.26s-.1.91-.3,1.26Z" style="fill: #f7f3f3;"/>
    <path d="M33.81,45.86c-.21-.36-.46-.68-.78-.89-.4-.27-.87-.41-1.41-.41-.58,0-1.11.14-1.6.41s-.87.66-1.16,1.16c-.29.5-.43,1.1-.43,1.8s.14,1.29.43,1.79.68.89,1.16,1.16,1.02.41,1.6.41c.54,0,1.01-.13,1.41-.41.32-.22.57-.53.78-.9v1.16h1.12v-10.92h-1.12v5.64ZM33.5,49.18c-.21.35-.47.61-.78.78-.32.18-.64.27-.97.27-.39,0-.76-.09-1.09-.27-.34-.18-.6-.44-.81-.78s-.3-.77-.3-1.26.1-.92.3-1.26c.2-.34.47-.61.81-.78.34-.18.7-.27,1.09-.27.33,0,.65.09.97.27s.58.44.78.78c.21.35.31.77.31,1.26s-.1.91-.31,1.26Z" style="fill: #f7f3f3;"/>
    <path d="M41.22,44.96c-.45-.27-1-.4-1.63-.4s-1.19.14-1.67.42-.85.67-1.12,1.18c-.27.5-.4,1.09-.4,1.76s.13,1.25.38,1.75.62.9,1.08,1.18c.46.29.99.43,1.59.43.69,0,1.29-.14,1.8-.41s.93-.68,1.27-1.22l-.91-.57c-.23.39-.52.68-.85.88-.34.19-.72.29-1.16.29s-.81-.09-1.12-.28c-.31-.19-.54-.46-.7-.81-.12-.27-.18-.59-.21-.94h5.05v-.33c0-.68-.12-1.27-.36-1.76-.24-.49-.59-.88-1.04-1.14v-.03ZM38.49,45.81c.3-.18.67-.27,1.1-.27.36,0,.68.08.95.24s.48.38.64.66c.13.23.19.51.21.81h-3.8c.04-.24.1-.46.2-.65.16-.34.4-.6.7-.78h0Z" style="fill: #f7f3f3;"/>
    <polygon points="45.99 49.25 44.17 44.7 42.91 44.7 45.99 51.63 49.07 44.7 47.81 44.7 45.99 49.25" style="fill: #f7f3f3;"/>
    <path d="M54.17,44.96c-.45-.27-1-.4-1.63-.4s-1.19.14-1.67.42-.85.67-1.12,1.18c-.27.5-.4,1.09-.4,1.76s.13,1.25.38,1.75.62.9,1.08,1.18c.46.29.99.43,1.59.43.69,0,1.29-.14,1.8-.41s.93-.68,1.27-1.22l-.91-.57c-.23.39-.52.68-.85.88-.34.19-.72.29-1.16.29s-.81-.09-1.12-.28c-.31-.19-.54-.46-.7-.81-.12-.27-.18-.59-.21-.94h5.05v-.33c0-.68-.12-1.27-.36-1.76-.24-.49-.59-.88-1.04-1.14v-.03ZM51.44,45.81c.3-.18.67-.27,1.1-.27.36,0,.68.08.95.24s.48.38.64.66c.13.23.19.51.21.81h-3.8c.04-.24.1-.46.2-.65.16-.34.4-.6.7-.78h0Z" style="fill: #f7f3f3;"/>
    <rect x="57.12" y="40.22" width="1.12" height="10.92" style="fill: #f7f3f3;"/>
    <path d="M64.81,44.99c-.5-.29-1.07-.43-1.7-.43s-1.19.14-1.69.43-.9.69-1.2,1.19-.44,1.08-.44,1.74.15,1.22.44,1.73.69.91,1.2,1.2,1.07.43,1.69.43,1.2-.14,1.7-.43.9-.69,1.19-1.2.44-1.08.44-1.73-.15-1.23-.44-1.74-.69-.9-1.19-1.19ZM65.02,49.11c-.19.35-.45.62-.78.82s-.71.3-1.13.3-.8-.1-1.13-.3-.59-.47-.78-.82c-.19-.34-.29-.74-.29-1.19s.1-.85.29-1.2c.19-.35.45-.62.78-.82.33-.2.71-.29,1.13-.29s.8.1,1.13.29c.33.2.59.47.78.82s.29.75.29,1.2-.1.84-.29,1.19Z" style="fill: #f7f3f3;"/>
    <path d="M72.83,44.97c-.48-.27-1.01-.41-1.6-.41-.53,0-1,.14-1.41.41-.33.22-.58.53-.79.89v-1.16h-1.12v9.52h1.12v-4.24c.21.37.46.68.79.9.41.27.88.41,1.41.41.59,0,1.12-.13,1.6-.41.48-.27.87-.66,1.16-1.16s.43-1.1.43-1.79-.15-1.3-.43-1.8c-.29-.5-.67-.88-1.16-1.16ZM72.99,49.18c-.2.35-.47.61-.8.78-.33.18-.7.27-1.1.27-.33,0-.65-.09-.97-.27s-.58-.44-.78-.78c-.21-.35-.31-.77-.31-1.26s.1-.92.31-1.26.47-.61.78-.78c.32-.18.64-.27.97-.27.4,0,.77.09,1.1.27s.6.44.8.78c.2.35.3.77.3,1.26s-.1.91-.3,1.26Z" style="fill: #f7f3f3;"/>
    <path d="M80.23,44.96c-.45-.27-1-.4-1.63-.4s-1.19.14-1.67.42c-.48.28-.85.67-1.12,1.18-.27.5-.4,1.09-.4,1.76s.13,1.25.38,1.75.62.9,1.08,1.18c.46.29.99.43,1.59.43.69,0,1.29-.14,1.8-.41s.93-.68,1.27-1.22l-.91-.57c-.23.39-.52.68-.85.88-.34.19-.72.29-1.16.29s-.81-.09-1.12-.28c-.31-.19-.54-.46-.7-.81-.12-.27-.18-.59-.21-.94h5.05v-.33c0-.68-.12-1.27-.36-1.76-.24-.49-.59-.88-1.04-1.14v-.03ZM77.5,45.81c.3-.18.67-.27,1.1-.27.36,0,.68.08.95.24s.48.38.64.66c.13.23.19.51.21.81h-3.8c.04-.24.1-.46.2-.65.16-.34.4-.6.7-.78h0Z" style="fill: #f7f3f3;"/>
    <path d="M86.3,44.65c-.2-.06-.42-.09-.65-.09-.3,0-.59.12-.88.35-.18.15-.34.34-.48.55v-.76h-1.12v6.44h1.12v-3.92c0-.31.03-.58.09-.83.06-.24.17-.43.33-.57s.38-.21.66-.21c.19,0,.34.03.46.08.12.05.26.13.41.25l.62-.92c-.17-.18-.35-.3-.55-.36h-.01Z" style="fill: #f7f3f3;"/>
  </g>
  <g>
    <path d="M1.26,33v-.67l.93-.26c.41-.11.69-.31.85-.61s.24-.66.24-1.09v-15.49c-.19-.4-.36-.71-.5-.91s-.28-.38-.43-.53-.35-.32-.61-.51l-.58-.42v-.67h5.47l10.62,14.53v-11.87c0-.43-.07-.8-.21-1.12s-.42-.53-.85-.64l-.96-.22v-.67h4.77v.67l-.8.22c-.41.13-.66.35-.75.66-.1.31-.14.68-.14,1.1v18.62h-1.79L4.33,16.36v13.98c0,.45.06.82.19,1.12.13.3.39.5.8.61l.86.26v.67s-4.92,0-4.92,0Z" style="fill: #f7f3f3;"/>
    <path d="M21.2,33v-.61l.48-.13c.43-.13.71-.32.86-.58.15-.26.23-.6.26-1.02v-7.73c0-.56-.01-1.15-.03-1.74,0-.43-.08-.76-.24-1.01-.16-.24-.45-.41-.88-.5l-.45-.1v-.58l5.6-1.86.38.35-.1,4.54v8.64c0,.43.08.77.24,1.02s.44.45.85.58l.35.1v.61h-7.33v.02ZM24.88,15.4c-.7,0-1.3-.22-1.79-.67s-.74-1.01-.74-1.7.25-1.27.74-1.71c.49-.44,1.09-.66,1.79-.66s1.3.22,1.79.66c.49.44.74,1.01.74,1.71s-.25,1.25-.74,1.7-1.09.67-1.79.67Z" style="fill: #f7f3f3;"/>
    <path d="M29.93,33v-.61l.51-.13c.7-.21,1.06-.74,1.06-1.57v-9.44c-.02-.45-.1-.79-.22-1.04-.13-.25-.41-.41-.83-.5l-.51-.13v-.58l5.18-1.86.38.35.22,1.98c.77-.68,1.63-1.24,2.58-1.68s1.88-.66,2.8-.66c1.41,0,2.49.38,3.25,1.15s1.14,1.94,1.14,3.52v8.9c0,.83.38,1.36,1.15,1.57l.35.1v.61h-7.36v-.61l.48-.13c.7-.23,1.06-.76,1.06-1.57v-9.5c0-.75-.16-1.29-.48-1.63-.32-.34-.85-.51-1.6-.51-1.05,0-2.13.46-3.26,1.38v10.3c0,.83.37,1.36,1.12,1.57l.32.1v.61h-7.34Z" style="fill: #f7f3f3;"/>
    <path d="M52.78,33.45c-1.22,0-2.25-.35-3.09-1.04-.84-.69-1.26-1.69-1.26-2.99,0-1.02.5-1.97,1.49-2.83s2.55-1.5,4.69-1.9c.36-.08.78-.17,1.26-.24.48-.08.95-.16,1.42-.24v-2.27c0-1.45-.18-2.45-.54-3.01s-.94-.83-1.73-.83h-.1c-.49,0-.88.16-1.17.46-.29.31-.48.82-.56,1.52l-.1.42c-.06.85-.29,1.48-.67,1.87-.38.39-.86.59-1.44.59-.53,0-.98-.17-1.33-.5-.35-.33-.53-.76-.53-1.3,0-.88.3-1.61.9-2.21.6-.6,1.39-1.04,2.38-1.34s2.06-.45,3.22-.45c1.9,0,3.35.46,4.35,1.38s1.5,2.41,1.5,4.48v7.14c0,.92.44,1.38,1.31,1.38h.74l.32.35c-.38.49-.81.87-1.28,1.14-.47.27-1.11.4-1.92.4-.92,0-1.65-.22-2.19-.66-.54-.44-.9-1.02-1.07-1.74-.68.73-1.35,1.31-2.02,1.76-.66.45-1.53.67-2.59.67h0ZM54.64,31.4c.43,0,.83-.1,1.22-.29.38-.19.86-.51,1.44-.96v-5.12c-.56.08-1.12.19-1.7.32-.92.21-1.66.61-2.22,1.18s-.85,1.35-.85,2.34c0,.85.2,1.49.59,1.9.39.42.9.62,1.52.62h0Z" style="fill: #f7f3f3;"/>
    <path d="M71.18,33v-.67l.86-.26c.45-.13.79-.32,1.04-.58s.44-.61.59-1.06l6.46-18.69h2.66l6.43,18.82c.17.47.36.83.58,1.07.21.25.55.44,1.02.59l.48.13v.64h-8.13v-.64l.54-.16c.47-.15.75-.38.85-.7.1-.32.07-.71-.08-1.18l-1.34-4.13h-7.07l-1.38,4.06c-.15.47-.19.85-.13,1.15.06.3.33.53.8.7l.7.22v.67h-4.9l.02.02ZM76.39,25.26h6.46l-3.14-9.63-3.33,9.63h.01Z" style="fill: #f7f3f3;"/>
    <path d="M104.65,33.45c-.79,0-1.55-.07-2.27-.21-.72-.14-1.46-.38-2.21-.72v-3.97h.86l.61,1.79c.17.51.37.93.61,1.26.23.33.59.57,1.05.72.21.06.43.12.66.16s.44.06.66.06c.81,0,1.49-.24,2.05-.72.55-.48.83-1.15.83-2,0-.7-.22-1.27-.66-1.71s-1.21-.91-2.32-1.42c-1.13-.49-2.03-1.04-2.69-1.66s-.99-1.43-.99-2.43c0-.87.28-1.57.83-2.1.55-.52,1.23-1.11,2.02-1.78.75-.66,1.28-1.32,1.6-1.97s.48-1.35.48-2.1c0-1.07-.28-1.92-.85-2.54-.57-.63-1.41-.94-2.54-.94-1.75,0-2.92.9-3.52,2.69-.21.66-.36,1.47-.43,2.43-.08.96-.11,2.23-.11,3.81v6.34c0,2.2.03,4.38.1,6.56h-5.86v-.61l.19-.06c.79-.23,1.19-.76,1.22-1.57,0-.62,0-1.34.02-2.18s.02-1.55.02-2.14v-6.98c0-1.49.2-2.73.59-3.71s.86-1.78,1.39-2.4c.75-.96,1.71-1.71,2.88-2.26,1.17-.54,2.45-.82,3.84-.82,2.03,0,3.61.41,4.75,1.22s1.71,1.8,1.71,2.98c0,.85-.28,1.6-.83,2.24-.56.64-1.33,1.26-2.34,1.86-.92.49-1.56.9-1.92,1.23s-.54.68-.54,1.04c0,.43.27.81.8,1.14.53.33,1.45.77,2.75,1.33,1.41.66,2.4,1.39,2.99,2.18s.88,1.77.88,2.94c0,.98-.27,1.85-.8,2.61s-1.27,1.35-2.22,1.78c-.95.43-2.04.64-3.28.64h-.01Z" style="fill: #f7f3f3;"/>
    <path d="M112.55,33v-.64l.7-.19c.34-.11.57-.26.67-.46.11-.2.17-.47.19-.82v-8.13c0-.49-.01-1.07-.03-1.73,0-.36-.05-.65-.16-.85s-.34-.35-.7-.43l-.67-.16v-.58l5.18-1.86.38.35.22,2.14c.75-.68,1.58-1.27,2.5-1.76s1.86-.74,2.82-.74c1.07,0,1.9.21,2.5.64s1.06,1.08,1.38,1.95c.81-.81,1.71-1.45,2.69-1.9.98-.46,1.95-.69,2.91-.69,1.45,0,2.54.36,3.26,1.09.73.73,1.09,1.87,1.09,3.42v9.25c0,.68.3,1.11.9,1.28l.61.16v.64h-7.2v-.64l.58-.16c.58-.19.86-.63.86-1.31v-9.38c0-.92-.17-1.54-.5-1.87s-.87-.5-1.62-.5c-.58,0-1.12.12-1.63.35-.51.24-1.08.6-1.7,1.09.13.64.19,1.38.19,2.21v8.13c.02.36.09.65.21.85.12.2.35.35.69.43l.54.16v.64h-7.23v-.64l.67-.19c.34-.11.57-.26.69-.46.12-.2.18-.47.18-.82v-9.34c0-.87-.16-1.49-.48-1.86-.32-.36-.86-.54-1.63-.54-.98,0-2.04.47-3.17,1.41v10.37c0,.7.3,1.13.9,1.28l.54.16v.64h-7.33Z" style="fill: #f7f3f3;"/>
    <path d="M144.78,33.45c-1.22,0-2.25-.35-3.09-1.04-.84-.69-1.26-1.69-1.26-2.99,0-1.02.5-1.97,1.49-2.83s2.55-1.5,4.69-1.9c.36-.08.78-.17,1.26-.24.48-.08.95-.16,1.42-.24v-2.27c0-1.45-.18-2.45-.54-3.01-.36-.55-.94-.83-1.73-.83h-.1c-.49,0-.88.16-1.17.46-.29.31-.47.82-.56,1.52l-.1.42c-.06.85-.29,1.48-.67,1.87s-.86.59-1.44.59c-.53,0-.98-.17-1.33-.5s-.53-.76-.53-1.3c0-.88.3-1.61.9-2.21.6-.6,1.39-1.04,2.38-1.34s2.06-.45,3.22-.45c1.9,0,3.35.46,4.35,1.38s1.5,2.41,1.5,4.48v7.14c0,.92.44,1.38,1.31,1.38h.74l.32.35c-.38.49-.81.87-1.28,1.14s-1.11.4-1.92.4c-.92,0-1.65-.22-2.19-.66-.54-.44-.9-1.02-1.07-1.74-.68.73-1.35,1.31-2.02,1.76-.66.45-1.53.67-2.59.67h0ZM146.63,31.4c.43,0,.83-.1,1.22-.29.38-.19.86-.51,1.44-.96v-5.12c-.56.08-1.12.19-1.7.32-.92.21-1.66.61-2.22,1.18-.57.58-.85,1.35-.85,2.34,0,.85.2,1.49.59,1.9.39.42.9.62,1.52.62h0Z" style="fill: #f7f3f3;"/>
    <path d="M156.49,33v-.61l.51-.13c.7-.21,1.06-.74,1.06-1.57v-9.44c-.02-.45-.1-.79-.22-1.04-.13-.25-.41-.41-.83-.5l-.51-.13v-.58l5.18-1.86.38.35.22,1.98c.77-.68,1.63-1.24,2.58-1.68s1.88-.66,2.8-.66c1.41,0,2.49.38,3.25,1.15s1.14,1.94,1.14,3.52v8.9c0,.83.38,1.36,1.15,1.57l.35.1v.61h-7.36v-.61l.48-.13c.7-.23,1.06-.76,1.06-1.57v-9.5c0-.75-.16-1.29-.48-1.63-.32-.34-.85-.51-1.6-.51-1.05,0-2.13.46-3.26,1.38v10.3c0,.83.37,1.36,1.12,1.57l.32.1v.61h-7.34Z" style="fill: #f7f3f3;"/>
    <path d="M174.86,33v-.61l.51-.13c.7-.21,1.06-.74,1.06-1.57v-9.44c-.02-.45-.1-.79-.22-1.04-.13-.25-.41-.41-.83-.5l-.51-.13v-.58l5.18-1.86.38.35.22,1.98c.77-.68,1.63-1.24,2.58-1.68s1.88-.66,2.8-.66c1.41,0,2.49.38,3.25,1.15s1.14,1.94,1.14,3.52v8.9c0,.83.38,1.36,1.15,1.57l.35.1v.61h-7.36v-.61l.48-.13c.7-.23,1.06-.76,1.06-1.57v-9.5c0-.75-.16-1.29-.48-1.63-.32-.34-.85-.51-1.6-.51-1.05,0-2.13.46-3.26,1.38v10.3c0,.83.37,1.36,1.12,1.57l.32.1v.61h-7.34Z" style="fill: #f7f3f3;"/>
  </g>
</svg>